<svg id="visual" viewBox="0 0 960 540" width="960" height="540" xmlns="http://www.w3.org/2000/svg" xmlns:xlink="http://www.w3.org/1999/xlink" version="1.1"><rect x="0" y="0" width="960" height="540" fill="#12161c"></rect><defs><linearGradient id="grad1_0" x1="43.8%" y1="0%" x2="100%" y2="100%"><stop offset="14.444444444444446%" stop-color="#12161c" stop-opacity="1"></stop><stop offset="85.55555555555554%" stop-color="#12161c" stop-opacity="1"></stop></linearGradient></defs><defs><linearGradient id="grad2_0" x1="0%" y1="0%" x2="56.3%" y2="100%"><stop offset="14.444444444444446%" stop-color="#12161c" stop-opacity="1"></stop><stop offset="85.55555555555554%" stop-color="#12161c" stop-opacity="1"></stop></linearGradient></defs><g transform="translate(960, 0)"><path d="M0 216C-11.8 212 -23.7 207.9 -36.3 205.8C-48.9 203.7 -62.3 203.5 -71.1 195.5C-80 187.4 -84.2 171.5 -97 168C-109.8 164.5 -131.3 173.3 -138.8 165.5C-146.4 157.6 -140.1 133.1 -141.7 118.9C-143.4 104.8 -153 101 -164.5 95C-176.1 89 -189.5 80.6 -190.8 69.4C-192 58.3 -181 44.3 -183.2 32.3C-185.3 20.3 -200.7 10.1 -216 0L0 0Z" fill="#9a72b0"></path></g><g transform="translate(0, 540)"><path d="M0 -216C12.4 -212.7 24.8 -209.4 36.1 -204.8C47.4 -200.2 57.6 -194.3 69.8 -191.7C81.9 -189.1 95.9 -189.8 106.5 -184.5C117.1 -179.1 124.1 -167.7 132.4 -157.8C140.7 -148 150.1 -139.7 152.4 -127.9C154.8 -116.1 149.9 -100.8 160.2 -92.5C170.5 -84.2 195.9 -82.8 203 -73.9C210.1 -65 198.8 -48.5 197.9 -34.9C197.1 -21.3 206.5 -10.7 216 0L0 0Z" fill="#9a72b0"></path></g></svg>