<svg id="visual" viewBox="0 0 960 540" width="960" height="540" xmlns="http://www.w3.org/2000/svg" xmlns:xlink="http://www.w3.org/1999/xlink" version="1.1"><rect x="0" y="0" width="960" height="540" fill="#12161c"></rect><g transform="translate(480.6829459932136 280.2409004928796)"><path d="M148.9 -186.7C182.2 -149.6 190.8 -92.4 197.4 -37.4C204 17.6 208.5 70.3 189.4 115C170.3 159.7 127.6 196.4 79.5 210.5C31.4 224.6 -22.1 216.1 -70.6 197.1C-119.1 178.1 -162.6 148.6 -184.8 107.8C-207 67.1 -207.9 15.1 -199.7 -35.9C-191.5 -86.8 -174.2 -136.9 -139.4 -173.7C-104.6 -210.6 -52.3 -234.3 2.8 -237.6C57.9 -240.9 115.7 -223.9 148.9 -186.7" fill="#2083a2"></path></g></svg>