<svg id="visual" viewBox="0 0 960 540" width="960" height="540" xmlns="http://www.w3.org/2000/svg" xmlns:xlink="http://www.w3.org/1999/xlink" version="1.1"><path d="M0 174L22.8 165.8C45.7 157.7 91.3 141.3 137 141.3C182.7 141.3 228.3 157.7 274 160.3C319.7 163 365.3 152 411.2 145.7C457 139.3 503 137.7 548.8 138.7C594.7 139.7 640.3 143.3 686 139.7C731.7 136 777.3 125 823 131.3C868.7 137.7 914.3 161.3 937.2 173.2L960 185L960 0L937.2 0C914.3 0 868.7 0 823 0C777.3 0 731.7 0 686 0C640.3 0 594.7 0 548.8 0C503 0 457 0 411.2 0C365.3 0 319.7 0 274 0C228.3 0 182.7 0 137 0C91.3 0 45.7 0 22.8 0L0 0Z" fill="#303746"></path><path d="M0 266L22.8 258.7C45.7 251.3 91.3 236.7 137 232.2C182.7 227.7 228.3 233.3 274 231.7C319.7 230 365.3 221 411.2 221.8C457 222.7 503 233.3 548.8 232.3C594.7 231.3 640.3 218.7 686 213.3C731.7 208 777.3 210 823 216.3C868.7 222.7 914.3 233.3 937.2 238.7L960 244L960 183L937.2 171.2C914.3 159.3 868.7 135.7 823 129.3C777.3 123 731.7 134 686 137.7C640.3 141.3 594.7 137.7 548.8 136.7C503 135.7 457 137.3 411.2 143.7C365.3 150 319.7 161 274 158.3C228.3 155.7 182.7 139.3 137 139.3C91.3 139.3 45.7 155.7 22.8 163.8L0 172Z" fill="#242935"></path><path d="M0 352L22.8 350.2C45.7 348.3 91.3 344.7 137 345.5C182.7 346.3 228.3 351.7 274 357.2C319.7 362.7 365.3 368.3 411.2 372.8C457 377.3 503 380.7 548.8 378.8C594.7 377 640.3 370 686 368.3C731.7 366.7 777.3 370.3 823 370.3C868.7 370.3 914.3 366.7 937.2 364.8L960 363L960 242L937.2 236.7C914.3 231.3 868.7 220.7 823 214.3C777.3 208 731.7 206 686 211.3C640.3 216.7 594.7 229.3 548.8 230.3C503 231.3 457 220.7 411.2 219.8C365.3 219 319.7 228 274 229.7C228.3 231.3 182.7 225.7 137 230.2C91.3 234.7 45.7 249.3 22.8 256.7L0 264Z" fill="#191c25"></path><path d="M0 390L22.8 390.8C45.7 391.7 91.3 393.3 137 396.8C182.7 400.3 228.3 405.7 274 410.2C319.7 414.7 365.3 418.3 411.2 423.8C457 429.3 503 436.7 548.8 434.8C594.7 433 640.3 422 686 418.3C731.7 414.7 777.3 418.3 823 418.3C868.7 418.3 914.3 414.7 937.2 412.8L960 411L960 361L937.2 362.8C914.3 364.7 868.7 368.3 823 368.3C777.3 368.3 731.7 364.7 686 366.3C640.3 368 594.7 375 548.8 376.8C503 378.7 457 375.3 411.2 370.8C365.3 366.3 319.7 360.7 274 355.2C228.3 349.7 182.7 344.3 137 343.5C91.3 342.7 45.7 346.3 22.8 348.2L0 350Z" fill="#13151c"></path><path d="M0 455L22.8 455C45.7 455 91.3 455 137 455C182.7 455 228.3 455 274 461.2C319.7 467.3 365.3 479.7 411.2 485C457 490.3 503 488.7 548.8 487C594.7 485.3 640.3 483.7 686 481C731.7 478.3 777.3 474.7 823 470.2C868.7 465.7 914.3 460.3 937.2 457.7L960 455L960 409L937.2 410.8C914.3 412.7 868.7 416.3 823 416.3C777.3 416.3 731.7 412.7 686 416.3C640.3 420 594.7 431 548.8 432.8C503 434.7 457 427.3 411.2 421.8C365.3 416.3 319.7 412.7 274 408.2C228.3 403.7 182.7 398.3 137 394.8C91.3 391.3 45.7 389.7 22.8 388.8L0 388Z" fill="#111319"></path><path d="M0 541L22.8 541C45.7 541 91.3 541 137 541C182.7 541 228.3 541 274 541C319.7 541 365.3 541 411.2 541C457 541 503 541 548.8 541C594.7 541 640.3 541 686 541C731.7 541 777.3 541 823 541C868.7 541 914.3 541 937.2 541L960 541L960 453L937.2 455.7C914.3 458.3 868.7 463.7 823 468.2C777.3 472.7 731.7 476.3 686 479C640.3 481.7 594.7 483.3 548.8 485C503 486.7 457 488.3 411.2 483C365.3 477.7 319.7 465.3 274 459.2C228.3 453 182.7 453 137 453C91.3 453 45.7 453 22.8 453L0 453Z" fill="#101117"></path></svg>