<svg id="visual" viewBox="0 0 960 540" width="960" height="540" xmlns="http://www.w3.org/2000/svg" xmlns:xlink="http://www.w3.org/1999/xlink" version="1.1"><path d="M0 104L26.7 116.5C53.3 129 106.7 154 160 154.8C213.3 155.7 266.7 132.3 320 129.7C373.3 127 426.7 145 480 146.8C533.3 148.7 586.7 134.3 640 130.7C693.3 127 746.7 134 800 150.2C853.3 166.3 906.7 191.7 933.3 204.3L960 217L960 0L933.3 0C906.7 0 853.3 0 800 0C746.7 0 693.3 0 640 0C586.7 0 533.3 0 480 0C426.7 0 373.3 0 320 0C266.7 0 213.3 0 160 0C106.7 0 53.3 0 26.7 0L0 0Z" fill="#888db8"></path><path d="M0 206L26.7 216C53.3 226 106.7 246 160 246C213.3 246 266.7 226 320 220.5C373.3 215 426.7 224 480 223.2C533.3 222.3 586.7 211.7 640 214.3C693.3 217 746.7 233 800 251.8C853.3 270.7 906.7 292.3 933.3 303.2L960 314L960 215L933.3 202.3C906.7 189.7 853.3 164.3 800 148.2C746.7 132 693.3 125 640 128.7C586.7 132.3 533.3 146.7 480 144.8C426.7 143 373.3 125 320 127.7C266.7 130.3 213.3 153.7 160 152.8C106.7 152 53.3 127 26.7 114.5L0 102Z" fill="#7178a9"></path><path d="M0 266L26.7 280.3C53.3 294.7 106.7 323.3 160 322.3C213.3 321.3 266.7 290.7 320 286.2C373.3 281.7 426.7 303.3 480 313.3C533.3 323.3 586.7 321.7 640 318C693.3 314.3 746.7 308.7 800 321.2C853.3 333.7 906.7 364.3 933.3 379.7L960 395L960 312L933.3 301.2C906.7 290.3 853.3 268.7 800 249.8C746.7 231 693.3 215 640 212.3C586.7 209.7 533.3 220.3 480 221.2C426.7 222 373.3 213 320 218.5C266.7 224 213.3 244 160 244C106.7 244 53.3 224 26.7 214L0 204Z" fill="#59639b"></path><path d="M0 341L26.7 351.8C53.3 362.7 106.7 384.3 160 383.5C213.3 382.7 266.7 359.3 320 360.2C373.3 361 426.7 386 480 389.5C533.3 393 586.7 375 640 365.2C693.3 355.3 746.7 353.7 800 367.2C853.3 380.7 906.7 409.3 933.3 423.7L960 438L960 393L933.3 377.7C906.7 362.3 853.3 331.7 800 319.2C746.7 306.7 693.3 312.3 640 316C586.7 319.7 533.3 321.3 480 311.3C426.7 301.3 373.3 279.7 320 284.2C266.7 288.7 213.3 319.3 160 320.3C106.7 321.3 53.3 292.7 26.7 278.3L0 264Z" fill="#4d5686"></path><path d="M0 541L26.7 541C53.3 541 106.7 541 160 541C213.3 541 266.7 541 320 541C373.3 541 426.7 541 480 541C533.3 541 586.7 541 640 541C693.3 541 746.7 541 800 541C853.3 541 906.7 541 933.3 541L960 541L960 436L933.3 421.7C906.7 407.3 853.3 378.7 800 365.2C746.7 351.7 693.3 353.3 640 363.2C586.7 373 533.3 391 480 387.5C426.7 384 373.3 359 320 358.2C266.7 357.3 213.3 380.7 160 381.5C106.7 382.3 53.3 360.7 26.7 349.8L0 339Z" fill="#414972"></path></svg>